# xmcd
#
# Track frame offsets:
#	150
#	16256
#	29377
#	43730
#	58064
#	73683
#	91733
#	113105
#	130281
#	147388
#	161723
#	175534
#	191388
#	201977
#	216435
#	230038
#	246322
#	259685
#	278443
#	291754
#	307671
#	324029
#
# Disc length: 4542 seconds
# Revision: 0
# Processed by: cddbd v1.5.2PL0 Copyright (c) Steve Scherf et al.
# Submitted via: dBpowerAMP V12.0
#
DISCID=3b11bc16
DTITLE=Ricky Skaggs - Love's Gonna Get Ya! - Comin' Home to Stay
DYEAR=2011
DGENRE=
TTITLE0=Love's Gonna Get You Someday
TTITLE1=I'm beside Myself
TTITLE2=I Wonder If I Care As Much
TTITLE3=Don't Stop, Gispy
TTITLE4=A Hard Row to Hoe
TTITLE5=I Won't Let You Down
TTITLE6=Walkin' in Jerusalem
TTITLE7=Artificial Heart
TTITLE8=Love Can't Ever Get Better than This
TTITLE9=Daddy Was a Hard-Working, Honest Man
TTITLE10=Raisin' the Dickens
TTITLE11=New Star Shining
TTITLE12=I'm Tired
TTITLE13=Hold Watcha' Got
TTITLE14=(Angel on My Mind) That's Why I'm Walkin'
TTITLE15=Home Is Wherever You Are
TTITLE16=If You Don't Believe the Bible
TTITLE17=San Antonio Rose
TTITLE18=Lord, She Sure Is Good at Lovin' Me
TTITLE19=Old Kind of Love Goin' 'Round
TTITLE20=Thanks Again
TTITLE21=Woman, You Won't Break Mine
EXTD=
EXTT0=
EXTT1=
EXTT2=
EXTT3=
EXTT4=
EXTT5=
EXTT6=
EXTT7=
EXTT8=
EXTT9=
EXTT10=
EXTT11=
EXTT12=
EXTT13=
EXTT14=
EXTT15=
EXTT16=
EXTT17=
EXTT18=
EXTT19=
EXTT20=
EXTT21=
PLAYORDER=
